<?xml version="1.0" encoding="UTF-8" standalone="no"?>
<!DOCTYPE svg PUBLIC "-//W3C//DTD SVG 1.1//EN" "http://www.w3.org/Graphics/SVG/1.1/DTD/svg11.dtd">
<svg width="100%" height="100%" viewBox="0 0 64 64" version="1.1" xmlns="http://www.w3.org/2000/svg" xmlns:xlink="http://www.w3.org/1999/xlink" xml:space="preserve" xmlns:serif="http://www.serif.com/" style="fill-rule:evenodd;clip-rule:evenodd;stroke-linejoin:round;stroke-miterlimit:2;">
    <rect id="ArtBoard1" x="0" y="0" width="64" height="64" style="fill:none;"/>
    <clipPath id="_clip1">
        <rect id="ArtBoard11" serif:id="ArtBoard1" x="0" y="0" width="64" height="64"/>
    </clipPath>
    <g clip-path="url(#_clip1)">
        <path d="M63.763,63.201L64,70L23.538,70L23.538,63.201C43.651,32.205 23.538,1.209 43.651,1.209C63.763,1.209 43.651,32.205 63.763,63.201Z" style="fill:rgb(255,0,216);fill-opacity:0.5;fill-rule:nonzero;"/>
        <path d="M39.893,63.201C19.78,32.205 39.893,1.209 19.78,1.209C-0.332,1.209 19.78,32.205 -0.332,63.201L-0.332,69L39.893,69L39.893,63.201Z" style="fill:rgb(0,0,255);fill-opacity:0.5;fill-rule:nonzero;"/>
        <path d="M40.708,62.672C28.763,44.264 31.204,25.845 30.727,14.064C30.521,8.998 29.73,5.1 27.355,2.77C25.716,1.162 23.324,0.238 19.78,0.238C16.237,0.238 13.844,1.162 12.206,2.77C9.831,5.1 9.039,8.998 8.834,14.064C8.356,25.845 10.797,44.264 -1.147,62.672C-1.439,63.122 -1.311,63.724 -0.861,64.016C-0.411,64.308 0.191,64.18 0.483,63.73C12.673,44.943 10.287,26.167 10.775,14.143C10.956,9.687 11.477,6.206 13.566,4.156C14.904,2.844 16.887,2.181 19.78,2.181C22.673,2.181 24.657,2.844 25.994,4.156C28.084,6.206 28.605,9.687 28.786,14.143C29.273,26.167 26.888,44.943 39.078,63.73C39.37,64.18 39.972,64.308 40.422,64.016C40.871,63.724 41,63.122 40.708,62.672Z" style="fill:rgb(0,0,255);"/>
        <path d="M24.353,63.73C36.543,44.943 34.158,26.167 34.645,14.143C34.826,9.687 35.347,6.206 37.437,4.156C38.774,2.844 40.758,2.181 43.651,2.181C46.543,2.181 48.527,2.844 49.864,4.156C51.954,6.206 52.475,9.687 52.656,14.143C53.143,26.167 50.758,44.943 62.948,63.73C63.24,64.18 63.842,64.308 64.292,64.016C64.742,63.724 64.87,63.122 64.578,62.672C52.633,44.264 55.075,25.845 54.597,14.064C54.391,8.998 53.6,5.1 51.225,2.77C49.587,1.162 47.194,0.238 43.651,0.238C40.107,0.238 37.714,1.162 36.076,2.77C33.701,5.1 32.91,8.998 32.704,14.064C32.226,25.845 34.668,44.264 22.723,62.672C22.431,63.122 22.559,63.724 23.009,64.016C23.459,64.308 24.061,64.18 24.353,63.73Z" style="fill:rgb(255,0,164);"/>
        <path d="M39.893,63.201C35.585,56.562 33.122,49.922 31.715,43.59C30.309,49.922 27.846,56.562 23.538,63.201L23.538,67L40,67L39.893,63.201Z" style="fill:rgb(255,0,0);fill-opacity:0.5;fill-rule:nonzero;"/>
        <path d="M32.801,43.832L31.715,44.703L30.63,43.349C29.249,49.564 26.833,56.08 22.605,62.596C22.488,62.776 22.426,62.986 22.426,63.201L22.426,67C22.426,67.614 22.924,68.112 23.538,68.112L40,68.112C40.3,68.112 40.588,67.991 40.797,67.775C41.007,67.56 41.12,67.269 41.112,66.969L41.005,63.17C40.999,62.966 40.937,62.767 40.826,62.596C36.598,56.08 34.182,49.564 32.801,43.349C32.837,43.51 32.836,43.675 32.801,43.832ZM31.715,48.047C33.208,53.114 35.443,58.327 38.79,63.543L38.856,65.888C38.856,65.888 24.65,65.888 24.65,65.888C24.65,65.888 24.65,63.529 24.65,63.529C27.992,58.318 30.225,53.109 31.715,48.047Z" style="fill:rgb(255,10,10);"/>
    </g>
</svg>
